<?xml version="1.0" standalone="no"?>
<!DOCTYPE svg PUBLIC "-//W3C//DTD SVG 20010904//EN"
 "http://www.w3.org/TR/2001/REC-SVG-20010904/DTD/svg10.dtd">
<svg version="1.0" xmlns="http://www.w3.org/2000/svg"
 width="1563.000000pt" height="350.000000pt" viewBox="0 0 300.000000 1563.000000"
 preserveAspectRatio="xMidYMid meet">

<g transform="translate(0.000000,1563.000000) scale(0.100000,-0.100000)"
fill="#000000" stroke="none">
<path d="M2740 11380 l0 -70 370 0 370 0 0 -1080 0 -1080 415 0 415 0 0 1080
0 1080 370 0 370 0 0 70 0 70 -1155 0 -1155 0 0 -70z"/>
<path d="M6270 11380 l0 -70 370 0 370 0 0 -1080 0 -1080 65 0 65 0 0 1080 0
1080 300 0 300 0 0 -1080 0 -1080 70 0 70 0 2 996 3 997 329 -944 c181 -519
338 -968 348 -996 l19 -53 440 0 c241 0 439 3 439 8 0 6 -187 531 -672 1883
l-142 396 -570 6 c-313 4 -848 7 -1188 7 l-618 0 0 -70z"/>
<path d="M11362 10302 c-216 -625 -392 -1140 -392 -1144 0 -5 33 -8 73 -8 l74
0 10 33 c6 17 104 300 218 627 113 327 265 763 336 968 71 206 133 381 139
390 6 11 9 -332 10 -1000 l0 -1018 415 0 415 0 0 1080 0 1080 345 0 345 0 0
65 0 65 -797 0 -798 0 -393 -1138z"/>
<path d="M5610 8822 c0 -4 16 -24 35 -44 47 -52 87 -52 138 0 21 21 35 41 31
44 -9 10 -57 -2 -75 -18 -20 -18 -28 -18 -48 0 -17 15 -81 29 -81 18z"/>
<path d="M10685 8706 c-66 -25 -96 -78 -78 -139 11 -40 55 -70 126 -86 71 -16
107 -42 91 -68 -15 -25 -103 -29 -157 -8 -39 16 -42 15 -54 -1 -37 -51 16 -86
132 -87 102 -1 160 35 172 107 10 65 -26 97 -148 130 -64 18 -88 39 -73 64 21
32 71 34 160 7 18 -6 23 -1 33 26 6 18 10 33 9 34 -39 31 -155 42 -213 21z"/>
<path d="M11829 8705 c-76 -24 -139 -111 -139 -190 0 -136 143 -232 283 -191
97 28 155 118 144 219 -16 129 -152 206 -288 162z m142 -82 c56 -33 75 -112
39 -170 -38 -63 -112 -80 -171 -40 -79 53 -66 188 21 220 31 11 83 6 111 -10z"/>
<path d="M3032 8568 c4 -160 14 -192 70 -226 68 -41 175 -36 226 11 48 44 56
74 60 220 l4 137 -45 0 -45 0 -4 -136 c-4 -134 -4 -137 -31 -160 -47 -40 -118
-25 -137 29 -5 16 -10 83 -10 148 l0 119 -46 0 -46 0 4 -142z"/>
<path d="M3670 8514 l0 -196 128 4 c144 4 187 19 232 85 35 50 40 144 11 200
-40 79 -99 103 -257 103 l-114 0 0 -196z m228 111 c46 -19 72 -59 72 -113 0
-75 -64 -122 -167 -122 l-43 0 0 125 0 125 50 0 c27 0 67 -7 88 -15z"/>
<path d="M4330 8515 l0 -195 45 0 45 0 0 55 0 55 40 0 c36 0 42 -4 77 -55 37
-53 39 -54 86 -55 54 0 54 -3 -1 74 l-35 48 31 25 c59 45 63 150 10 200 -37
35 -73 43 -189 43 l-109 0 0 -195z m210 112 c21 -11 25 -20 25 -57 0 -37 -4
-46 -25 -57 -14 -7 -46 -13 -72 -13 l-48 0 0 70 0 70 48 0 c26 0 58 -6 72 -13z"/>
<path d="M4932 8561 c3 -134 5 -153 24 -178 35 -47 82 -68 149 -68 67 0 114
21 149 68 19 25 21 44 24 178 l3 149 -45 0 -46 0 0 -135 c0 -131 -1 -137 -25
-160 -24 -25 -50 -30 -93 -19 -41 11 -52 52 -52 189 l0 125 -46 0 -45 0 3
-149z"/>
<path d="M5550 8675 l0 -35 100 0 c55 0 100 -2 100 -5 0 -3 -47 -62 -105 -131
-81 -97 -105 -132 -105 -155 l0 -29 170 0 170 0 0 35 0 35 -105 0 c-58 0 -105
4 -105 8 0 4 47 65 105 134 74 89 105 134 105 152 l0 26 -165 0 -165 0 0 -35z"/>
<path d="M6140 8515 l0 -195 150 0 150 0 0 35 0 35 -105 0 -105 0 0 45 0 45
90 0 90 0 0 35 0 35 -90 0 -90 0 0 45 0 45 100 0 100 0 0 35 0 35 -145 0 -145
0 0 -195z"/>
<path d="M6710 8515 l0 -195 45 0 44 0 3 114 3 115 93 -115 c90 -110 94 -114
132 -114 l40 0 0 195 0 195 -45 0 -44 0 -3 -117 -3 -117 -95 117 c-90 111 -97
117 -132 117 l-38 0 0 -195z"/>
<path d="M7340 8675 l0 -35 70 0 70 0 0 -103 c0 -77 -4 -108 -16 -125 -19 -27
-63 -29 -95 -3 -22 18 -23 18 -48 -12 l-25 -29 25 -19 c33 -26 95 -42 132 -33
99 21 117 59 117 254 l0 140 -115 0 -115 0 0 -35z"/>
<path d="M7850 8515 l0 -195 153 0 154 0 0 35 0 35 -109 0 -108 0 0 45 0 45
90 0 90 0 0 35 0 34 -87 3 -88 3 -3 43 -3 42 105 0 106 0 0 35 0 35 -150 0
-150 0 0 -195z"/>
<path d="M8770 8516 l0 -196 45 0 44 0 3 110 3 110 55 -90 c40 -65 61 -90 75
-90 15 0 35 26 77 98 l58 97 0 -117 0 -118 45 0 46 0 -1 196 -2 195 -41 -3
-42 -3 -69 -118 c-47 -81 -72 -114 -77 -105 -136 227 -132 223 -177 226 l-42
3 0 -195z"/>
<path d="M9542 8522 c-45 -103 -82 -190 -82 -194 0 -5 20 -8 43 -8 42 0 45 2
60 40 l15 40 95 0 94 0 13 -40 c13 -39 14 -40 63 -40 35 0 48 3 44 13 -3 6
-42 94 -87 195 l-83 182 -46 0 -46 0 -83 -188z m162 23 c14 -36 26 -67 26 -70
0 -3 -27 -5 -61 -5 -33 0 -59 3 -57 8 2 4 14 35 28 70 14 34 28 62 31 62 4 0
19 -29 33 -65z"/>
<path d="M10110 8675 l0 -35 70 0 70 0 0 -109 c0 -86 -3 -113 -16 -125 -21
-22 -64 -20 -89 4 l-21 20 -23 -24 c-44 -46 7 -91 100 -90 117 2 139 41 139
249 l0 145 -115 0 -115 0 0 -35z"/>
<path d="M11130 8675 l0 -34 63 -3 62 -3 3 -157 3 -158 44 0 45 0 0 160 0 160
60 0 60 0 0 35 0 35 -170 0 -170 0 0 -35z"/>
<path d="M12380 8515 l0 -195 45 0 45 0 0 55 0 55 44 0 c41 0 45 -2 80 -55 36
-54 37 -55 86 -55 l49 0 -43 61 -43 62 36 33 c34 30 36 36 36 92 0 50 -4 65
-25 87 -41 45 -79 55 -200 55 l-110 0 0 -195z m224 104 c17 -13 26 -30 26 -49
0 -44 -40 -70 -106 -70 l-54 0 0 70 0 70 54 0 c39 0 60 -6 80 -21z"/>
<path d="M13101 8688 c-5 -13 -43 -99 -85 -192 -42 -94 -76 -171 -76 -173 0
-2 21 -3 46 -3 44 0 46 1 61 40 l16 40 94 0 93 0 16 -40 c15 -38 18 -40 60
-40 24 0 44 4 44 8 0 5 -37 92 -83 193 l-82 184 -48 3 c-41 3 -48 0 -56 -20z
m110 -195 c8 -22 7 -23 -51 -23 -33 0 -60 3 -60 7 0 4 12 39 27 77 l27 69 24
-54 c13 -30 28 -64 33 -76z"/>
<path d="M3483 7373 c4 -526 4 -529 30 -649 42 -194 94 -316 202 -479 223
-336 585 -568 1045 -669 322 -71 648 -90 965 -55 437 47 763 187 1011 434 151
150 241 295 310 499 81 245 94 374 94 972 l0 474 -65 0 -65 0 0 -409 c0 -581
-17 -746 -101 -970 -185 -493 -574 -791 -1109 -852 -142 -16 -398 -6 -515 20
-473 104 -785 407 -910 885 -52 197 -57 265 -62 814 l-5 512 -415 0 -415 0 5
-527z"/>
<path d="M7740 6850 l0 -1050 -345 0 -345 0 0 -65 0 -65 758 2 757 3 3 63 3
62 -346 0 -345 0 0 1050 0 1050 -70 0 -70 0 0 -1050z"/>
<path d="M9020 7896 c0 -2 126 -365 281 -807 154 -442 329 -942 387 -1111
l107 -308 56 0 56 0 31 88 c55 154 742 2135 742 2138 0 2 -33 4 -74 4 l-73 0
-16 -42 c-9 -24 -75 -214 -147 -423 -73 -209 -135 -386 -139 -393 -4 -7 -73
173 -162 422 l-154 436 -447 0 c-247 0 -448 -2 -448 -4z"/>
<path d="M11828 6853 l-3 -1048 -342 -3 -343 -2 0 -65 0 -65 1105 0 1105 0 0
65 0 65 -345 0 -345 0 0 1050 0 1050 -415 0 -415 0 -2 -1047z"/>
</g>
</svg>
